<?xml version="1.0" encoding="utf-8"?>
<!-- Generator: Adobe Illustrator 27.6.1, SVG Export Plug-In . SVG Version: 6.00 Build 0)  -->
<svg version="1.1" id="レイヤー_1" xmlns="http://www.w3.org/2000/svg" xmlns:xlink="http://www.w3.org/1999/xlink" x="0px"
	 y="0px" viewBox="0 0 69 69" style="enable-background:new 0 0 69 69;" xml:space="preserve">
<style type="text/css">
	.st0{fill:#0B4E98;}
</style>
<path class="st0" d="M63,48.7l-0.9,1.5l0.3,1.6l-1.6,0.4l-1.1,1.6l2.8-0.5l1.1,0.7l1.1-1.6l-1.1-0.8L63,48.7z M60.5,55.8l-0.3-0.1
	L58.8,57l-0.4,0.4l-0.1,0.1l0.3,0.3c0.3-0.3,0.5-0.1,0.5-0.1c0.1,0.3,0,0.5-0.1,0.7c-0.1,0.1-0.1,0.3-0.3,0.3
	c-0.5,0.4-1.2,0.4-1.6-0.1c-0.4-0.5-0.4-1.2,0.1-1.6c0.3-0.3,0.5-0.3,0.8-0.3l0.1-0.1l1.5-1.3L59.5,55c-0.3-0.3-0.5-0.3-0.8-0.1
	l-3.6,3.5c-0.3,0.3-0.3,0.5,0,0.8c0,0,1.1,1.1,1.5,1.5c0.3,0.3,0.7,0.3,0.9,0c0,0,2.8-2.8,3.4-3.2l0.1-0.1l0.4-0.4l-0.7-0.7
	L60.5,55.8z M53.4,62.8c0,0-0.5,0.3-1.1,0.5c-0.3,0.1-0.7,0.1-0.8-0.1c-0.1-0.3-0.3-0.5-0.5-0.8c-0.3-0.3-0.1-0.7,0-0.8l1.1-0.7
	c0.3-0.1,0.7,0,0.8,0.3l0.5,0.7C53.6,62.2,53.6,62.6,53.4,62.8 M55.1,61l-0.5-0.8l-0.3-0.4c-0.1-0.3-0.5-0.4-0.8-0.3l-4.3,2.7
	c-0.3,0.1-0.3,0.5-0.1,0.8c0,0,0.8,1.2,1.1,1.8c0.3,0.3,0.7,0.4,0.9,0.1c0,0,3.4-2.2,4-2.6c0.3-0.1,0.5-0.5,0.3-0.8L55.1,61z
	 M32.1,65.9L32.1,65.9C32.1,66.1,32.1,66.1,32.1,65.9c0,0.4-0.4,0.3-0.4,0.3L30,64.9l-2-0.3L27.7,68l2,0.3l0.1-1.1
	c0-0.3,0.4-0.1,0.4-0.1l1.8,1.3l2,0.1l0.4-3.4l-2-0.3L32.1,65.9z M10.8,56.1L10.8,56.1l0.3-0.3c0.1-0.1,0.3-0.1,0.3,0l2.8,2.8
	l0.4-0.4l-3-3l-1.3-1.3l-0.4,0.4L8,56.2l1.3,1.3l3,3l0.4-0.4l-2.8-2.8V57l0.4-0.4c0.1,0,0.3,0,0.3,0.1l2.3,2.3l0.4-0.4L11,56.4
	C10.7,56.4,10.7,56.2,10.8,56.1 M39.2,67.7c0,0-0.5,0-1.2,0.1c-0.4,0-0.7-0.1-0.7-0.5c0-0.3-0.1-0.5-0.1-0.9
	c-0.1-0.3,0.1-0.7,0.4-0.7l1.2-0.1c0.3,0,0.5,0.3,0.5,0.5l0.1,0.9C39.7,67.2,39.4,67.6,39.2,67.7 M41.6,66.8l-0.1-0.9l-0.1-0.5
	c0-0.3-0.3-0.5-0.5-0.5l-5.1,0.5c-0.3,0-0.5,0.3-0.5,0.7c0,0,0.1,1.5,0.3,2c0.1,0.4,0.4,0.5,0.8,0.5c0,0,3.9-0.4,4.7-0.5
	c0.4,0,0.7-0.3,0.7-0.7V66.8z M20.1,61.6l-4.3-2.7c-0.3-0.1-0.5-0.1-0.7,0.1c0,0-0.8,1.2-1.1,1.8c-0.1,0.3,0,0.7,0.3,0.9
	c0,0,3.4,2.2,4,2.6c0.3,0.3,0.7,0.1,0.9-0.1l0.3-0.5l-1.5-0.9C18,63,17.6,63.1,17.3,63c0,0-0.7-0.4-1.2-0.7
	c-0.3-0.1-0.4-0.5-0.3-0.8c0,0,0.1-0.3,0.5-0.8c0.3-0.3,0.5-0.3,0.8-0.1l1.1,0.7c0.3,0.1,0.3,0.5,0.1,0.8L20,63l0.3-0.4
	C20.5,62.3,20.4,61.9,20.1,61.6 M25,65.1l-2.2-0.7l0.4-1.3l-1.9-0.7L21,63.8l-0.1,0.3l-0.5,1.6l1.9,0.7l0.4-1.3l2.2,0.7L24.3,67
	l1.9,0.7l0.4-1.3l0.1-0.3l0.5-1.6l-1.9-0.7L25,65.1z M9.5,53.5l0.5-0.3L6.8,48l-0.5,0.3L7.3,50L5,51.4l1.1,1.8l2.3-1.3L9.5,53.5z
	 M45,66.6L44,63.9l-1.9,0.7l1.1,3.2l1.9-0.7l3.9-1.3l-0.1-0.5L45,66.6z M47.5,8.1c0,0,4.5,2.6,5.3,3c0.4,0.3,0.9,0.3,1.2-0.1
	l0.4-0.7l-2-1.2c-0.3,0.3-0.7,0.4-1.1,0.3c0,0-0.8-0.5-1.5-0.8c-0.4-0.3-0.5-0.8-0.4-1.2c0,0,0.3-0.4,0.7-0.9
	c0.3-0.4,0.7-0.4,1.1-0.3l1.3,0.8c0.3,0.3,0.4,0.7,0.3,1.1l2,1.2l0.3-0.5c0.3-0.4,0.1-0.8-0.1-1.1l-5.5-3.2c-0.3-0.1-0.8,0-0.9,0.3
	c0,0-0.9,1.6-1.3,2.3C46.8,7.3,47.1,7.8,47.5,8.1 M56.7,15.2L58,14l1.9,2.2l-1.3,1.1l1.6,1.9l1.3-1.2l0.3-0.3l1.6-1.3l-1.6-1.6
	l-1.3,1.2l-1.9-2.2l1.3-1.2l-1.6-1.9L57,11.9L56.6,12l-1.6,1.3L56.7,15.2z M38.8,5.9l2.6,0.4L41.9,3l2.7,0.4l0.1-0.7l-7.8-1.3
	L36.7,2l2.6,0.5L38.8,5.9z M26.2,6.5l6.3-1.1c0.5,0,0.7-0.4,0.7-0.8c-0.1-0.8-0.5-3.4-0.5-3.4l-2.2,0.4l0.4,2.6
	c0,0.4-0.3,0.8-0.5,0.9l-2.2,0.4c-0.4,0-0.8-0.3-0.9-0.7c-0.1-0.9-0.4-2.4-0.4-2.4l-2.2,0.1l0.5,3.4C25.4,6.3,25.8,6.6,26.2,6.5
	 M18.7,10L18.7,10l4.6-2.6l-0.4-0.7l-4.6,2.6l-1.8-3.1l-2.2,1.2l2.2,3.8L18.7,10z M6.5,16.5c0,0,1.5,1.2,2,1.8
	c0.4,0.3,0.9,0.3,1.2-0.1c0,0,3.4-3.8,4-4.4c0.3-0.3,0.3-0.8,0-1.2l-0.7-0.5l-1.5,1.6c0.3,0.3,0.4,0.8,0.1,1.1l-1.2,1.3
	c-0.3,0.4-0.8,0.4-1.2,0.1l-0.8-0.8c-0.3-0.3-0.3-0.8,0-1.1l1.1-1.2c0.3-0.3,0.7-0.3,1.1-0.1l1.6-1.8l-0.5-0.4
	c-0.3-0.3-0.7-0.4-1.1,0l-4.3,4.9C6.1,15.6,6.1,16.2,6.5,16.5 M65.5,21L65.5,21L63.3,22c3.5,8.1,3.5,17.3,0,25.2l2.2,0.9
	C69.2,39.5,69.2,29.7,65.5,21 M3.2,34.5c0-4.3,0.9-8.6,2.7-12.7l-2.2-0.9c-3.8,8.6-3.8,18.5,0,27.1l2.2-0.9
	C4.1,43.2,3.2,39,3.2,34.5 M52.9,45.2c1.1,0,2-0.1,3-0.4v-5.4c-2.7,1.6-6.1,0.8-7.8-1.8c-1.6-2.7-0.8-6.1,1.8-7.8
	c1.9-1.1,4.2-1.1,5.9,0v-5.4c-0.9-0.3-2-0.4-3-0.4c-5.8,0-10.7,4.7-10.7,10.7C42.1,40.6,47.1,45.2,52.9,45.2 M57.4,42.5
	c0,1.5,1.2,2.7,2.6,2.7c1.5,0,2.7-1.2,2.7-2.6c0-1.5-1.2-2.7-2.6-2.7C58.6,39.8,57.4,41,57.4,42.5C57.4,42.3,57.4,42.3,57.4,42.5
	 M22.8,34.5c0,5.9,4.9,10.7,10.7,10.7c0.9,0,2-0.1,3-0.4v-5.4c-2.7,1.6-6.1,0.8-7.8-1.8c-1.6-2.7-0.8-6.1,1.8-7.8
	c1.9-1.1,4.2-1.1,5.9,0v-5.4c-0.9-0.3-2-0.4-3-0.4C27.6,24,22.8,28.7,22.8,34.5 M37.8,42.5c0,1.5,1.2,2.7,2.6,2.7
	c1.5,0,2.7-1.2,2.7-2.7c0-1.5-1.2-2.7-2.6-2.7C39,39.8,37.8,41,37.8,42.5 M20.8,45c1.5,0,2.6-1.2,2.6-2.7s-1.2-2.6-2.7-2.6
	c-1.5,0-2.6,1.2-2.6,2.7C18.3,43.8,19.3,45,20.8,45 M20.7,28.9v-5H8.3v21.3h5.3v-7.8h5.5v-5h-5.7v-3.2L20.7,28.9z"/>
<g>
</g>
<g>
</g>
<g>
</g>
<g>
</g>
<g>
</g>
<g>
</g>
<g>
</g>
<g>
</g>
<g>
</g>
<g>
</g>
<g>
</g>
<g>
</g>
<g>
</g>
<g>
</g>
<g>
</g>
</svg>
